<svg width="41" height="38" viewBox="0 0 41 38" fill="none" xmlns="http://www.w3.org/2000/svg">
<path d="M24.8863 23.2199L23.6441 25.0832C22.9628 26.1053 23.6709 27.478 24.8987 27.5152C25.7253 27.5402 26.4448 28.2179 26.2632 29.0247C26.2559 29.0573 26.248 29.089 26.2397 29.1198C25.8166 30.6792 24.8403 31.4186 23.3797 32.1097C23.1455 32.2206 22.8721 32.3078 22.5864 32.3765C21.2353 32.7011 20.046 33.5707 19.4798 34.8397C18.8466 36.2587 19.5449 37.9804 21.0987 37.9988C22.0651 38.0103 23.0806 37.9416 23.8997 37.6997C26.1553 37.0336 27.3812 36.184 28.9697 34.4497C30.4885 32.7914 31.0813 31.5418 31.6997 29.3798C32.0148 28.2779 32.0803 26.8866 32.0445 25.6079C31.9854 23.4957 30.1554 21.9698 28.0424 21.9698H27.2221C26.2835 21.9698 25.407 22.4389 24.8863 23.2199Z" fill="#4888DB"/>
<path d="M20.1904 4.09193L20.2191 2.40176C20.2417 1.06878 21.3287 1.19017e-05 22.6619 1.19017e-05H37.8594C39.8942 1.19017e-05 41.1078 2.26769 39.9791 3.96067C39.5159 4.6555 38.7416 5.07919 37.9066 5.09465L25.1997 5.32996C25.1997 5.32996 23.9013 5.38313 23.1197 5.71996C21.8223 6.27915 20.1665 5.50455 20.1904 4.09193Z" fill="#4888DB"/>
<path d="M25.9797 16.7699C27.8624 16.1083 30.5333 16.1204 32.276 16.2231C33.3667 16.2874 34.4426 15.8339 35.0914 14.9549C36.438 13.1304 35.3427 10.575 33.0784 10.4521C30.5788 10.3165 27.608 10.3135 25.3297 10.7899C23.9917 11.0697 23.3188 11.2525 22.0797 11.8299C20.2179 12.6976 18.1798 15.2099 18.1798 15.2099L12.6167 23.3016C11.3389 25.1602 12.6696 27.6898 14.925 27.6898C15.9669 27.6898 16.9224 27.1114 17.4479 26.2117C18.5885 24.2587 20.7566 20.8348 22.9897 18.8498C24.1597 17.8099 24.5653 17.2669 25.9797 16.7699Z" fill="#4888DB"/>
<path d="M6.79454 22.3383C7.0029 24.3229 8.15761 26.7314 8.99667 28.2622C9.52179 29.2203 9.5727 30.3868 9.05617 31.3495C7.9841 33.3477 5.20576 33.4521 4.12512 31.4586C2.93216 29.2578 1.65734 26.5745 1.11227 24.3116C0.792156 22.9826 0.669155 22.2963 0.660384 20.9293C0.647204 18.8753 2.04476 15.9577 2.04476 15.9577L6.97485 7.46546C8.10726 5.51486 10.963 5.63412 11.9288 7.67233C12.375 8.61389 12.2614 9.72499 11.6734 10.5851C10.397 12.4521 8.23134 15.8776 7.39381 18.7456C6.95501 20.2482 6.63801 20.8473 6.79454 22.3383Z" fill="#4888DB"/>
</svg>
