<svg width="270" height="235" viewBox="0 0 270 235" fill="none" xmlns="http://www.w3.org/2000/svg">
<g filter="url(#filter0_d_0_1)">
<path d="M129 147L150 112.5L175.5 154.5L182.5 153.5L197.5 127L139.5 28L142 24L180.5 25L240 127L196.5 198.5H159.5L129 147Z" fill="url(#paint0_linear_0_1)"/>
</g>
<path d="M128 49.5L148.5 84.5L161 63L140 27.5L128 49.5Z" fill="url(#paint1_linear_0_1)"/>
<path d="M65.5 161L93.5 111.5L115 146.5L87.5 199L65.5 161Z" fill="url(#paint2_linear_0_1)"/>
<path d="M20.5 175L0 139.5L62.5 26L83.5 62.5L20.5 175Z" fill="url(#paint3_linear_0_1)"/>
<g filter="url(#filter1_d_0_1)">
<path d="M144 95.5L122.5 131.5L62 27L63.5 24.5H102L144 95.5Z" fill="url(#paint4_linear_0_1)"/>
</g>
<defs>
<filter id="filter0_d_0_1" x="99" y="0" width="171" height="234.5" filterUnits="userSpaceOnUse" color-interpolation-filters="sRGB">
<feFlood flood-opacity="0" result="BackgroundImageFix"/>
<feColorMatrix in="SourceAlpha" type="matrix" values="0 0 0 0 0 0 0 0 0 0 0 0 0 0 0 0 0 0 127 0" result="hardAlpha"/>
<feOffset dy="6"/>
<feGaussianBlur stdDeviation="15"/>
<feComposite in2="hardAlpha" operator="out"/>
<feColorMatrix type="matrix" values="0 0 0 0 0.956863 0 0 0 0 0.956863 0 0 0 0 0.956863 0 0 0 0.08 0"/>
<feBlend mode="normal" in2="BackgroundImageFix" result="effect1_dropShadow_0_1"/>
<feBlend mode="normal" in="SourceGraphic" in2="effect1_dropShadow_0_1" result="shape"/>
</filter>
<filter id="filter1_d_0_1" x="32" y="0.5" width="142" height="167" filterUnits="userSpaceOnUse" color-interpolation-filters="sRGB">
<feFlood flood-opacity="0" result="BackgroundImageFix"/>
<feColorMatrix in="SourceAlpha" type="matrix" values="0 0 0 0 0 0 0 0 0 0 0 0 0 0 0 0 0 0 127 0" result="hardAlpha"/>
<feOffset dy="6"/>
<feGaussianBlur stdDeviation="15"/>
<feComposite in2="hardAlpha" operator="out"/>
<feColorMatrix type="matrix" values="0 0 0 0 0.956863 0 0 0 0 0.956863 0 0 0 0 0.956863 0 0 0 0.08 0"/>
<feBlend mode="normal" in2="BackgroundImageFix" result="effect1_dropShadow_0_1"/>
<feBlend mode="normal" in="SourceGraphic" in2="effect1_dropShadow_0_1" result="shape"/>
</filter>
<linearGradient id="paint0_linear_0_1" x1="184.5" y1="24" x2="184.5" y2="198.5" gradientUnits="userSpaceOnUse">
<stop stop-color="#FDFDFD"/>
<stop offset="0.605769" stop-color="#CFCFCF"/>
</linearGradient>
<linearGradient id="paint1_linear_0_1" x1="144.5" y1="27.5" x2="144.5" y2="84.5" gradientUnits="userSpaceOnUse">
<stop stop-color="#FDFDFD"/>
<stop offset="0.605769" stop-color="#CFCFCF"/>
</linearGradient>
<linearGradient id="paint2_linear_0_1" x1="90.25" y1="111.5" x2="90.25" y2="199" gradientUnits="userSpaceOnUse">
<stop stop-color="#FDFDFD"/>
<stop offset="0.605769" stop-color="#CFCFCF"/>
</linearGradient>
<linearGradient id="paint3_linear_0_1" x1="41.75" y1="26" x2="41.75" y2="175" gradientUnits="userSpaceOnUse">
<stop stop-color="#FDFDFD"/>
<stop offset="0.605769" stop-color="#CFCFCF"/>
</linearGradient>
<linearGradient id="paint4_linear_0_1" x1="103" y1="24.5" x2="103" y2="131.5" gradientUnits="userSpaceOnUse">
<stop stop-color="#FDFDFD"/>
<stop offset="0.605769" stop-color="#CFCFCF"/>
</linearGradient>
</defs>
</svg>
